<svg width="48" height="48" viewBox="0 0 48 48" fill="none" xmlns="http://www.w3.org/2000/svg">
<rect x="4" y="4" width="40" height="40" rx="20" fill="white"/>
<path fill-rule="evenodd" clip-rule="evenodd" d="M22.933 16.3076C24.3219 16.4339 25.7108 15.55 26.5947 14.5399C27.4785 13.4036 27.9836 11.8884 27.8573 10.4995C26.5947 10.4995 25.0795 11.2571 24.1957 12.3935C23.4381 13.2773 22.6805 14.7924 22.933 16.3076ZM32.4028 19.0855C30.8876 16.8128 28.6149 16.5603 27.8573 16.5603C26.606 16.4821 25.4516 16.9367 24.5441 17.2941C23.9864 17.5137 23.522 17.6966 23.1856 17.6966C22.8115 17.6966 22.3244 17.4931 21.7624 17.2583C20.9966 16.9383 20.0919 16.5603 19.1452 16.5603C17.125 16.5603 15.1048 17.8229 14.0947 19.7169C11.822 23.5047 13.4634 29.1865 15.6098 32.3431C16.6199 33.8583 17.8826 35.4997 19.524 35.4997C20.2393 35.4997 20.7577 35.2745 21.3049 35.0368C21.9167 34.771 22.5646 34.4896 23.5644 34.4896C24.5452 34.4896 25.1536 34.7605 25.7401 35.0217C26.2862 35.2649 26.8134 35.4997 27.6048 35.4997C29.2462 35.4997 30.3826 33.9845 31.3927 32.4694C32.529 30.7017 33.0341 29.0603 33.0341 28.934C33.0341 28.934 29.7513 27.6714 29.7513 23.8835C29.7513 21.0241 31.8234 19.5117 32.3074 19.1583C32.3577 19.1216 32.3909 19.0974 32.4028 19.0855Z" fill="black"/>
</svg>
