<svg width="48" height="48" viewBox="0 0 48 48" fill="none" xmlns="http://www.w3.org/2000/svg">
<rect x="4" y="4" width="40" height="40" rx="20" fill="#F7931A"/>
<path fill-rule="evenodd" clip-rule="evenodd" d="M32.8159 21.1506C33.2141 18.4894 31.1878 17.0588 28.4172 16.1044L29.3159 12.4994L27.1216 11.9525L26.2466 15.4625C25.6697 15.3187 25.0772 15.1831 24.4884 15.0487L25.3697 11.5156L23.1766 10.9688L22.2772 14.5725C21.7997 14.4637 21.3309 14.3563 20.8759 14.2431L20.8784 14.2319L17.8522 13.4762L17.2684 15.82C17.2684 15.82 18.8966 16.1931 18.8622 16.2162C19.7509 16.4381 19.9116 17.0262 19.8847 17.4925L18.8609 21.5994C18.9222 21.615 19.0016 21.6375 19.0891 21.6725L19.0147 21.6539L19.0144 21.6539C18.9636 21.6411 18.9109 21.6279 18.8572 21.615L17.4222 27.3681C17.3134 27.6381 17.0378 28.0431 16.4166 27.8894C16.4384 27.9213 14.8216 27.4912 14.8216 27.4912L13.7322 30.0031L16.5878 30.715C16.9067 30.7949 17.2218 30.8771 17.5336 30.9584L17.534 30.9585C17.7415 31.0126 17.9475 31.0663 18.1522 31.1187L17.2441 34.765L19.4359 35.3119L20.3353 31.7044C20.9341 31.8669 21.5153 32.0169 22.0841 32.1581L21.1878 35.7488L23.3822 36.2956L24.2903 32.6562C28.0322 33.3644 30.8459 33.0787 32.0303 29.6944C32.9847 26.9694 31.9828 25.3975 30.0141 24.3725C31.4478 24.0419 32.5278 23.0988 32.8159 21.1506ZM27.8022 28.1815C27.18 30.6816 23.2667 29.648 21.4762 29.1751L21.4759 29.175C21.3149 29.1325 21.1711 29.0945 21.0484 29.064L22.2534 24.2334C22.4029 24.2707 22.5855 24.3117 22.7924 24.3581L22.7925 24.3581C24.6444 24.7737 28.4397 25.6253 27.8022 28.1815ZM23.1647 22.1161C24.6575 22.5145 27.9137 23.3835 28.4809 21.1112C29.0602 18.7871 25.8953 18.0865 24.3497 17.7443C24.1758 17.7058 24.0224 17.6718 23.8972 17.6406L22.8047 22.0219C22.9079 22.0476 23.029 22.0799 23.1647 22.1161Z" fill="white"/>
</svg>
