<svg width="48" height="48" viewBox="0 0 48 48" fill="none" xmlns="http://www.w3.org/2000/svg">
<rect x="4" y="4" width="40" height="40" rx="20" fill="#9C42F5"/>
<path d="M23.9082 36C28.2332 36 31.7201 34.4505 34 31.6483L29.7755 27.8901C28.3003 29.6374 26.4898 30.5934 24.2434 30.5934C20.3878 30.5934 17.7055 27.956 17.7055 24C17.7055 20.044 20.3878 17.4066 24.2434 17.4066C26.4898 17.4066 28.3003 18.3626 29.7755 20.1099L34 16.3516C31.7201 13.5495 28.2332 12 23.9082 12C16.465 12 11 16.978 11 24C11 31.022 16.465 36 23.9082 36Z" fill="white"/>
</svg>
