<svg width="48" height="48" viewBox="0 0 48 48" fill="none" xmlns="http://www.w3.org/2000/svg">
<path d="M4 24C4 35.0457 12.9543 44 24 44C35.0457 44 44 35.0457 44 24C44 12.9543 35.0457 4 24 4C12.9543 4 4 12.9543 4 24Z" fill="#DD007A"/>
<path fill-rule="evenodd" clip-rule="evenodd" d="M24.9546 15.4756C25.1273 15.37 25.3192 15.4084 25.4823 15.5619C25.8181 15.8881 26.0675 17.6342 25.5111 18.4688C25.4247 18.6032 25.3384 18.6415 25.2328 18.6703C24.4941 18.8718 20.4839 19.7448 20.4839 19.7448C20.4455 19.7544 20.3975 19.7544 20.3591 19.7544C20.0713 19.7544 19.8507 19.5242 19.8507 19.2555C19.8603 19.0829 19.9466 18.9389 20.0809 18.8526L24.9546 15.4756ZM36.3233 19.3708H39V28.9839H36.3233V19.3708ZM13.0582 26.3069H11.6767V22.2391H13.0582C14.622 22.2391 15.2936 22.8531 15.2936 24.273C15.2936 25.7025 14.622 26.3069 13.0582 26.3069ZM13.0582 19.5624H9V28.9836H13.0582C16.0899 28.9836 17.9607 27.18 17.9607 24.273C17.9607 21.3661 16.0803 19.5624 13.0582 19.5624ZM22.9687 22.7187C23.7362 22.7187 24.4269 23.1409 24.7915 23.8316H21.1171C21.4816 23.1409 22.1916 22.7187 22.9687 22.7187ZM23.0838 29.1083C23.8993 29.1274 24.7531 28.9164 25.607 28.5326L25.6454 28.5134L24.7627 26.7673L24.7435 26.7386L24.7148 26.7482C24.283 26.94 23.8417 27.036 23.41 27.036C22.7672 27.036 22.134 26.8153 21.6447 26.422C21.6408 26.418 21.6237 26.4026 21.6037 26.3845L21.6035 26.3843L21.6034 26.3843C21.575 26.3586 21.5408 26.3277 21.5296 26.3164C21.4337 26.2205 21.3473 26.1246 21.2706 26.019H27.2571V24.9253C27.2571 22.4501 25.3767 20.5217 22.9687 20.5217C20.6086 20.5217 18.6802 22.4405 18.6802 24.8102C18.6802 25.9423 19.1119 27.0072 19.9082 27.8131L19.937 27.8419C20.2728 28.1776 20.6661 28.4559 21.0883 28.6669C21.1143 28.6775 21.1436 28.6901 21.1766 28.7043C21.4722 28.8313 22.0567 29.0824 23.0838 29.1083ZM31.4592 22.0666H35.3544V19.4187H31.4592C28.9552 19.4187 28.0822 20.9346 28.0822 22.7958V28.9934H30.7301V26.2304H34.4525V23.8223H30.7301V22.7958C30.7301 22.3832 31.0563 22.0666 31.4592 22.0666Z" fill="white"/>
</svg>
