<svg width="48" height="48" viewBox="0 0 48 48" fill="none" xmlns="http://www.w3.org/2000/svg">
<rect x="4" y="4" width="40" height="40" rx="20" fill="white"/>
<path fill-rule="evenodd" clip-rule="evenodd" d="M15.5509 35.5603L15.4809 35.4931C15.2104 35.2057 15.0499 34.7607 15.0499 34.1822V34.3184V13.6837C15.0499 13.6818 15.0499 13.6809 15.0499 13.679C15.0499 13.6809 15.0499 13.6828 15.0499 13.6837V13.8209C15.0499 13.1948 15.2365 12.7236 15.55 12.4409L27.1092 24.0011L15.5509 35.5603ZM15.0499 13.6779C15.0499 13.6266 15.0508 13.5762 15.0536 13.5267C15.0508 13.5762 15.0499 13.6266 15.0499 13.6779Z" fill="url(#paint0_linear_110_36)"/>
<path fill-rule="evenodd" clip-rule="evenodd" d="M30.9626 27.9913L31.0503 27.9418L35.6155 25.348C36.0503 25.1008 36.3405 24.8003 36.4851 24.4831C36.3405 24.8003 36.0513 25.1008 35.6155 25.348L31.0503 27.9418L30.9626 27.9913ZM30.9635 27.8551L27.1092 24.0008L30.9635 20.1465L35.6155 22.7897C36.2061 23.1256 36.5383 23.5585 36.5933 23.9999C36.5933 24.0008 36.5933 24.0008 36.5933 24.0017C36.5383 24.4431 36.2061 24.876 35.6155 25.2119L30.9635 27.8551Z" fill="url(#paint1_linear_110_36)"/>
<path fill-rule="evenodd" clip-rule="evenodd" d="M16.3747 35.9998C16.0519 35.9998 15.7702 35.8953 15.55 35.6965H15.5509C15.7702 35.8943 16.0529 35.9998 16.3757 35.9998C16.4037 35.9998 16.4317 35.9998 16.4606 35.9979C16.4317 35.9998 16.4027 35.9998 16.3747 35.9998ZM16.3749 35.8634C16.052 35.8634 15.7703 35.758 15.551 35.5602L27.1093 24.001L30.9636 27.8553L17.4208 35.5499C17.0457 35.7627 16.6912 35.8634 16.3749 35.8634Z" fill="url(#paint2_linear_110_36)"/>
<path fill-rule="evenodd" clip-rule="evenodd" d="M27.1092 24.0012L15.55 12.441C15.7692 12.2432 16.051 12.1387 16.3738 12.1387C16.6892 12.1387 17.0447 12.2395 17.4207 12.4522L30.9635 20.1469L27.1092 24.0012ZM31.0503 20.06L17.4207 12.3159C17.0456 12.1032 16.6892 12.0024 16.3738 12.0024C16.372 12.0024 16.371 12.0024 16.3692 12.0024C16.371 12.0024 16.3729 12.0024 16.3748 12.0024C16.6901 12.0024 17.0456 12.1023 17.4207 12.3159L31.0503 20.06Z" fill="url(#paint3_linear_110_36)"/>
<mask id="mask0_110_36" style="mask-type:alpha" maskUnits="userSpaceOnUse" x="15" y="12" width="17" height="13">
<path fill-rule="evenodd" clip-rule="evenodd" d="M27.1092 24.0012L15.55 12.441C15.7692 12.2432 16.051 12.1387 16.3738 12.1387C16.6892 12.1387 17.0447 12.2395 17.4207 12.4522L30.9635 20.1469L27.1092 24.0012ZM31.0503 20.06L17.4207 12.3159C17.0456 12.1032 16.6892 12.0024 16.3738 12.0024C16.372 12.0024 16.371 12.0024 16.3692 12.0024C16.371 12.0024 16.3729 12.0024 16.3748 12.0024C16.6901 12.0024 17.0456 12.1023 17.4207 12.3159L31.0503 20.06Z" fill="white"/>
</mask>
<g mask="url(#mask0_110_36)">
</g>
<defs>
<linearGradient id="paint0_linear_110_36" x1="18.3757" y1="5.7092" x2="2.3791" y2="16.1533" gradientUnits="userSpaceOnUse">
<stop stop-color="#00C2FF"/>
<stop offset="1" stop-color="#00E3FF"/>
</linearGradient>
<linearGradient id="paint1_linear_110_36" x1="27.1092" y1="28.5303" x2="37.8967" y2="28.5303" gradientUnits="userSpaceOnUse">
<stop stop-color="#FFBB00"/>
<stop offset="1" stop-color="#F3D830"/>
</linearGradient>
<linearGradient id="paint2_linear_110_36" x1="15.2786" y1="17.9109" x2="0.238214" y2="42.8312" gradientUnits="userSpaceOnUse">
<stop stop-color="#FF3944"/>
<stop offset="1" stop-color="#C31161"/>
</linearGradient>
<linearGradient id="paint3_linear_110_36" x1="7.90828" y1="14.3405" x2="15.5174" y2="30.1333" gradientUnits="userSpaceOnUse">
<stop stop-color="#0CDD75"/>
<stop offset="1" stop-color="#00F076"/>
</linearGradient>
</defs>
</svg>
