<svg width="48" height="48" viewBox="0 0 48 48" fill="none" xmlns="http://www.w3.org/2000/svg">
<rect x="4" y="4" width="40" height="40" rx="20" fill="#4579F5"/>
<path d="M12.8644 21.2447C12.1638 21.2447 11.5398 21.4797 11.08 21.938V19H9V27.7201H11.08V24.641C11.08 23.5833 11.5945 23.1368 12.2623 23.1368C12.8644 23.1368 13.2366 23.5246 13.2366 24.4412V27.7201H15.3166V24.0769C15.3166 22.1026 14.2547 21.2447 12.8644 21.2447Z" fill="white"/>
<path d="M20.2023 25.8985C20.0271 26.0278 19.7972 26.0983 19.5674 26.0983C19.1951 26.0983 18.9434 25.8397 18.9434 25.3697V23.2543H20.3008V21.5855H18.9434V19.9284H16.8634V21.5855H15.9985V23.2543H16.8634V25.3932C16.8634 27.0267 17.7501 27.8259 19.2718 27.8259C19.8191 27.8259 20.3556 27.7083 20.7168 27.4615L20.2023 25.8985Z" fill="white"/>
<path d="M24.9811 25.8985C24.8059 26.0278 24.576 26.0983 24.3461 26.0983C23.9739 26.0983 23.7221 25.8397 23.7221 25.3697V23.2543H25.0796V21.5855H23.7221V19.9284H21.6421V21.5855H20.7773V23.2543H21.6421V25.3932C21.6421 27.0267 22.5289 27.8259 24.0505 27.8259C24.5979 27.8259 25.1343 27.7083 25.4956 27.4615L24.9811 25.8985Z" fill="white"/>
<path d="M30.0307 21.2447C29.2534 21.2447 28.6732 21.4797 28.2791 21.985V21.3504H26.2977V30H28.3777V27.156C28.7827 27.6026 29.341 27.8259 30.0307 27.8259C31.64 27.8259 32.9427 26.5566 32.9427 24.5353C32.9427 22.5139 31.64 21.2447 30.0307 21.2447ZM29.5928 26.0513C28.8922 26.0513 28.3448 25.4989 28.3448 24.5353C28.3448 23.5716 28.8922 23.0192 29.5928 23.0192C30.2934 23.0192 30.8408 23.5716 30.8408 24.5353C30.8408 25.4989 30.2934 26.0513 29.5928 26.0513Z" fill="white"/>
<path d="M36.0661 27.8259C37.9928 27.8259 39 26.9092 39 25.734C39 23.2073 35.5078 24.1592 35.5078 23.2778C35.5078 23.0427 35.7596 22.8312 36.4602 22.8312C36.9857 22.8312 37.5768 22.9487 38.168 23.3013L38.792 21.7853C38.2008 21.4327 37.2813 21.2447 36.4493 21.2447C34.5882 21.2447 33.5592 22.1613 33.5592 23.36C33.5592 25.9103 37.0623 24.9348 37.0623 25.7927C37.0623 26.063 36.8324 26.2276 36.1318 26.2276C35.4093 26.2276 34.6101 26.0043 34.0627 25.64L33.4387 27.1677C34.019 27.5556 35.059 27.8259 36.0661 27.8259Z" fill="white"/>
</svg>
